<svg width="112" height="36" viewBox="0 0 112 36" fill="none" xmlns="http://www.w3.org/2000/svg">
<path d="M1.3676 16.1349C1.3676 13.114 3.81654 10.665 6.83745 10.665H31.8468C33.8104 10.665 35.4022 12.2568 35.4022 14.2204V16.5603C35.4022 17.2316 35.9465 17.7758 36.6178 17.7758C37.2891 17.7758 37.8333 18.3201 37.8333 18.9914V26.0414C37.8333 26.7127 37.2891 27.2569 36.6178 27.2569C35.9465 27.2569 35.4022 27.8011 35.4022 28.4725V30.8123C35.4022 32.7759 33.8104 34.3677 31.8468 34.3677H6.83745C3.81653 34.3677 1.3676 31.9188 1.3676 28.8979V16.1349Z" fill="#004852"/>
<path fill-rule="evenodd" clip-rule="evenodd" d="M0 16.1347C0 12.3585 3.06117 9.29736 6.83732 9.29736H31.8467C34.5655 9.29736 36.7696 11.5014 36.7696 14.2202V16.4126C38.1254 16.4912 39.2006 17.6156 39.2006 18.9912V26.0412C39.2006 27.4167 38.1254 28.5411 36.7696 28.6198V30.8121C36.7696 33.5309 34.5655 35.735 31.8467 35.735H6.83731C3.06117 35.735 0 32.6738 0 28.8977V16.1347ZM6.83732 12.0323C4.57163 12.0323 2.73493 13.869 2.73493 16.1347V28.8977C2.73493 31.1634 4.57163 33.0001 6.83731 33.0001H31.8467C33.0551 33.0001 34.0346 32.0205 34.0346 30.8121V28.4722C34.0346 27.0967 35.1099 25.9723 36.4657 25.8936V19.1387C35.1099 19.0601 34.0346 17.9357 34.0346 16.5601V14.2202C34.0346 13.0119 33.0551 12.0323 31.8467 12.0323H6.83732Z" fill="#004852"/>
<path d="M26.8936 19.7813C26.8936 18.7743 27.7099 17.958 28.7169 17.958H36.01C37.017 17.958 37.8333 18.7743 37.8333 19.7813V25.2511C37.8333 26.2581 37.017 27.0744 36.01 27.0744H28.7169C27.7099 27.0744 26.8936 26.2581 26.8936 25.2511V19.7813Z" fill="#E8F54A"/>
<path fill-rule="evenodd" clip-rule="evenodd" d="M25.5261 19.7816C25.5261 18.0194 26.9546 16.5908 28.7168 16.5908H36.01C37.7722 16.5908 39.2007 18.0194 39.2007 19.7816V25.2514C39.2007 27.0136 37.7722 28.4422 36.01 28.4422H28.7168C26.9546 28.4422 25.5261 27.0136 25.5261 25.2514V19.7816ZM28.7168 19.3257C28.4651 19.3257 28.261 19.5298 28.261 19.7816V25.2514C28.261 25.5032 28.4651 25.7072 28.7168 25.7072H36.01C36.2617 25.7072 36.4658 25.5032 36.4658 25.2514V19.7816C36.4658 19.5298 36.2617 19.3257 36.01 19.3257H28.7168Z" fill="#004852"/>
<path d="M21.6129 1.63553L7.39057 10.327C7.23344 10.423 7.3015 10.6649 7.48564 10.6649H28.4099C28.5483 10.6649 28.6362 10.5167 28.57 10.3952L24.1643 2.31823C23.6653 1.4033 22.5022 1.09209 21.6129 1.63553Z" fill="#E8F54A"/>
<path fill-rule="evenodd" clip-rule="evenodd" d="M22.9636 2.97309C22.8388 2.74436 22.5481 2.66656 22.3257 2.80242L11.6975 9.29747H26.4132L22.9636 2.97309ZM20.8996 0.468754C22.4559 -0.482282 24.4912 0.0623346 25.3646 1.66346L29.7702 9.74048C30.3335 10.7732 29.586 12.0324 28.4097 12.0324H7.4854C5.92021 12.0324 5.34167 9.97639 6.67726 9.16019L20.8996 0.468754Z" fill="#004852"/>
<path fill-rule="evenodd" clip-rule="evenodd" d="M14.1304 28.4419C13.3752 28.4419 12.763 27.8297 12.763 27.0744L12.763 17.958C12.763 17.2028 13.3752 16.5905 14.1304 16.5905C14.8857 16.5905 15.4979 17.2028 15.4979 17.958L15.4979 27.0744C15.4979 27.8297 14.8857 28.4419 14.1304 28.4419Z" fill="#E8F54A"/>
<path d="M52.1386 14.3687C53.6065 14.3687 54.8943 14.6556 56.002 15.2294C57.1229 15.8033 57.9837 16.624 58.5842 17.6916C59.1981 18.7458 59.505 19.9736 59.505 21.3748C59.505 22.776 59.1981 24.0037 58.5842 25.058C57.9837 26.0989 57.1229 26.9062 56.002 27.4801C54.8943 28.0539 53.6065 28.3408 52.1386 28.3408H47.2544V14.3687H52.1386ZM52.0385 25.9588C53.5065 25.9588 54.6408 25.5584 55.4415 24.7577C56.2422 23.957 56.6425 22.8294 56.6425 21.3748C56.6425 19.9202 56.2422 18.7859 55.4415 17.9718C54.6408 17.1444 53.5065 16.7307 52.0385 16.7307H50.0568V25.9588H52.0385ZM60.8821 22.756C60.8821 21.635 61.1023 20.6408 61.5427 19.7734C61.9964 18.906 62.6036 18.2387 63.3643 17.7716C64.1383 17.3046 64.999 17.071 65.9465 17.071C66.7739 17.071 67.4945 17.2379 68.1084 17.5715C68.7356 17.9051 69.236 18.3255 69.6097 18.8326V17.2512H72.4322V28.3408H69.6097V26.7194C69.2494 27.2399 68.749 27.6736 68.1084 28.0205C67.4812 28.3542 66.7539 28.521 65.9265 28.521C64.9924 28.521 64.1383 28.2808 63.3643 27.8004C62.6036 27.3199 61.9964 26.646 61.5427 25.7786C61.1023 24.8978 60.8821 23.8903 60.8821 22.756ZM69.6097 22.796C69.6097 22.1154 69.4763 21.5349 69.2094 21.0545C68.9425 20.5607 68.5821 20.1871 68.1284 19.9335C67.6747 19.6666 67.1876 19.5332 66.6671 19.5332C66.1467 19.5332 65.6663 19.66 65.2259 19.9135C64.7855 20.1671 64.4252 20.5407 64.145 21.0345C63.8781 21.5149 63.7446 22.0887 63.7446 22.756C63.7446 23.4232 63.8781 24.0104 64.145 24.5175C64.4252 25.0113 64.7855 25.3916 65.2259 25.6585C65.6796 25.9254 66.16 26.0588 66.6671 26.0588C67.1876 26.0588 67.6747 25.9321 68.1284 25.6785C68.5821 25.4116 68.9425 25.038 69.2094 24.5575C69.4763 24.0638 69.6097 23.4766 69.6097 22.796ZM85.3581 18.6924C85.3581 19.4398 85.1779 20.1404 84.8176 20.7943C84.4706 21.4482 83.9168 21.9753 83.1561 22.3756C82.4088 22.776 81.4613 22.9762 80.3137 22.9762H77.9716V28.3408H75.1692V14.3687H80.3137C81.3946 14.3687 82.3154 14.5555 83.0761 14.9292C83.8367 15.3028 84.4039 15.8166 84.7775 16.4705C85.1646 17.1244 85.3581 17.8651 85.3581 18.6924ZM80.1936 20.7142C80.9676 20.7142 81.5414 20.5407 81.9151 20.1938C82.2887 19.8334 82.4756 19.333 82.4756 18.6924C82.4756 17.3313 81.7149 16.6507 80.1936 16.6507H77.9716V20.7142H80.1936ZM86.6271 22.756C86.6271 21.635 86.8473 20.6408 87.2877 19.7734C87.7414 18.906 88.3486 18.2387 89.1093 17.7716C89.8833 17.3046 90.744 17.071 91.6915 17.071C92.5189 17.071 93.2395 17.2379 93.8534 17.5715C94.4806 17.9051 94.981 18.3255 95.3547 18.8326V17.2512H98.1771V28.3408H95.3547V26.7194C94.9944 27.2399 94.4939 27.6736 93.8534 28.0205C93.2262 28.3542 92.4989 28.521 91.6715 28.521C90.7374 28.521 89.8833 28.2808 89.1093 27.8004C88.3486 27.3199 87.7414 26.646 87.2877 25.7786C86.8473 24.8978 86.6271 23.8903 86.6271 22.756ZM95.3547 22.796C95.3547 22.1154 95.2212 21.5349 94.9543 21.0545C94.6874 20.5607 94.3271 20.1871 93.8734 19.9335C93.4197 19.6666 92.9326 19.5332 92.4121 19.5332C91.8917 19.5332 91.4113 19.66 90.9709 19.9135C90.5305 20.1671 90.1702 20.5407 89.89 21.0345C89.6231 21.5149 89.4896 22.0887 89.4896 22.756C89.4896 23.4232 89.6231 24.0104 89.89 24.5175C90.1702 25.0113 90.5305 25.3916 90.9709 25.6585C91.4246 25.9254 91.905 26.0588 92.4121 26.0588C92.9326 26.0588 93.4197 25.9321 93.8734 25.6785C94.3271 25.4116 94.6874 25.038 94.9543 24.5575C95.2212 24.0638 95.3547 23.4766 95.3547 22.796ZM111.523 17.2512L104.657 33.5854H101.675L104.077 28.0606L99.6331 17.2512H102.776L105.638 24.9979L108.541 17.2512H111.523Z" fill="#005A64"/>
</svg>
